<svg xmlns="http://www.w3.org/2000/svg" viewBox="0 0 1200 1200" role="img" aria-label="AI daily news cover">
  <defs>
    <linearGradient id="bg" x1="0" y1="0" x2="1" y2="1"><stop offset="0" stop-color="#f1eee7"/><stop offset="1" stop-color="#d2d6d8"/></linearGradient>
    <linearGradient id="main" x1="0" y1="0" x2="1" y2="1"><stop offset="0" stop-color="#111111"/><stop offset="1" stop-color="#5f6469"/></linearGradient>
    <linearGradient id="glass" x1="0" y1="1" x2="1" y2="0"><stop offset="0" stop-color="#8f969b"/><stop offset="1" stop-color="#f8f8f6"/></linearGradient>
    <filter id="blur"><feGaussianBlur stdDeviation="28"/></filter>
  </defs>
  <rect width="1200" height="1200" fill="url(#bg)"/><circle cx="1015" cy="190" r="265" fill="#ffffff" opacity="0.55" filter="url(#blur)"/><circle cx="155" cy="1030" r="300" fill="#aaa59d" opacity="0.30" filter="url(#blur)"/>
  <path d="M140 855C255 575 458 342 744 250c151-49 270-10 319 92 48 101-3 212-128 273-128 63-273 78-371 170-94 88-152 210-222 326-47 78-136 99-202 46-68-55-69-157-31-244 9-20 19-39 31-58Z" fill="url(#main)"/>
  <path d="M476 934c83-184 210-316 378-374 120-41 216-10 252 76 35 84-18 174-126 218-128 52-233 73-306 161-40 49-74 105-109 160-31 49-91 61-133 31-42-30-46-88-17-139 19-34 39-77 61-133Z" fill="url(#glass)" opacity="0.95"/>
  <circle cx="847" cy="350" r="26" fill="#0e0e0e"/><circle cx="702" cy="451" r="14" fill="#0e0e0e"/><circle cx="935" cy="567" r="19" fill="#0e0e0e"/><circle cx="562" cy="643" r="12" fill="#0e0e0e"/><circle cx="794" cy="747" r="10" fill="#0e0e0e"/>
  <path d="M847 350 702 451 935 567 794 747 562 643 702 451" fill="none" stroke="#111111" stroke-width="5" stroke-linecap="round" opacity="0.50"/><path d="M935 567 562 643M847 350 794 747" fill="none" stroke="#111111" stroke-width="2" opacity="0.26"/>
</svg>